<svg xml:space="preserve" viewBox="0 0 100 100" y="0" x="0" xmlns="http://www.w3.org/2000/svg" id="Layer_1" version="1.1" style="margin: initial; display: block; shape-rendering: auto" preserveAspectRatio="xMidYMid" width="200" height="200"><style>@keyframes animate {
    0% {
        transform: translate(0px, 0px) rotate(0deg) scale(0.91, 0.91) skew(0deg, 0deg);
        opacity: 1;
    }
    4% {
        transform: translate(0px, 0px) rotate(0deg) scale(0.91, 0.91);
    }
    8% {
        animation-timing-function: cubic-bezier(0.69, 0.6, 0.35, 0.27);
        transform: translate(0px, 0px) rotate(0deg) scale(0.91, 0.91);
    }
    14% {
        transform: translate(0px, 0px) rotate(0deg) scale(0.93, 0.93);
    }
    18% {
        transform: translate(0px, 0px) rotate(0deg) scale(0.94, 0.94);
    }
    22% {
        animation-timing-function: cubic-bezier(0.67, 0.66, 0.34, 0.33);
        transform: translate(0px, 0px) rotate(0deg) scale(0.96, 0.96);
    }
    26% {
        transform: translate(0px, 0px) rotate(0deg) scale(0.97, 0.97);
    }
    30% {
        transform: translate(0px, 0px) rotate(0deg) scale(0.99, 0.99);
    }
    34% {
        animation-timing-function: cubic-bezier(0.65, 0.71, 0.32, 0.38);
        transform: translate(0px, 0px) rotate(0deg) scale(1.01, 1.01);
    }
    40% {
        animation-timing-function: cubic-bezier(0.64, 0.74, 0.31, 0.41);
        transform: translate(0px, 0px) rotate(0deg) scale(1.02, 1.02);
    }
    46% {
        animation-timing-function: cubic-bezier(0.6, 0.91, 0.23, 0.63);
        transform: translate(0px, 0px) rotate(0deg) scale(1.03, 1.03);
    }
    50% {
        transform: translate(0px, 0px) rotate(0deg) scale(1.03, 1.03);
    }
    54% {
        transform: translate(0px, 0px) rotate(0deg) scale(1.03, 1.03);
    }
    58% {
        animation-timing-function: cubic-bezier(0.69, 0.6, 0.35, 0.27);
        transform: translate(0px, 0px) rotate(0deg) scale(1.03, 1.03);
    }
    64% {
        transform: translate(0px, 0px) rotate(0deg) scale(1.01, 1.01);
    }
    68% {
        transform: translate(0px, 0px) rotate(0deg) scale(1, 1);
    }
    72% {
        animation-timing-function: cubic-bezier(0.67, 0.66, 0.34, 0.33);
        transform: translate(0px, 0px) rotate(0deg) scale(0.98, 0.98);
    }
    76% {
        animation-timing-function: cubic-bezier(0.66, 0.68, 0.33, 0.35);
        transform: translate(0px, 0px) rotate(0deg) scale(0.97, 0.97);
    }
    82% {
        animation-timing-function: cubic-bezier(0.65, 0.71, 0.32, 0.38);
        transform: translate(0px, 0px) rotate(0deg) scale(0.94, 0.94);
    }

    88% {
        animation-timing-function: cubic-bezier(0.65, 0.73, 0.31, 0.4);
        transform: translate(0px, 0px) rotate(0deg) scale(0.92, 0.92);
    }
    94% {
        animation-timing-function: cubic-bezier(0.63, 0.8, 0.28, 0.48);
        transform: translate(0px, 0px) rotate(0deg) scale(0.91, 0.91);
    }
    100% {
        animation-timing-function: cubic-bezier(0.63, 0.8, 0.28, 0.48);
        transform: translate(0px, 0px) rotate(0deg) scale(0.91, 0.91);
    }
}</style><g class="ldl-scale" style="transform-origin: 50% 50%; transform: rotate(0deg) scale(0.8, 0.8);"><g class="ldl-ani"><g class="ldl-layer"><g class="ldl-ani"><g><g class="ldl-layer"><g class="ldl-ani" style="opacity: 1; transform-origin: 50px 50px; transform: matrix3d(0.91, 0, 0, 0, 0, 0.91, 0, 0, 0, 0, 0.91, 0, 0, 0, 0, 1); animation: 1s linear -0.55s infinite normal forwards running animate; transform-box: view-box;"><path stroke-miterlimit="10" stroke-width="3.5" stroke="#333" fill="#f4e6c8" d="M83.9 26.8c0-2-1.3-3.7-3-4.4-.7-2.2-2.5-4-4.8-4.5-.5-3.1-3.2-5.4-6.4-5.4-2.9 0-5.4 1.9-6.3 4.6-.8-.3-1.6-.5-2.5-.5-.6 0-1.2.1-1.8.3-1.1-2-3.3-3.4-5.8-3.4-.8 0-1.5.1-2.2.4-1-2.2-3.3-3.8-5.9-3.8-3.5 0-6.3 2.7-6.5 6.1-.9-.4-1.9-.7-2.9-.7-.6 0-1.1.1-1.6.2-1.2-1.4-3-2.3-4.9-2.3-3.6 0-6.6 2.9-6.6 6.6 0 .3 0 .7.1 1-1.4 0-2.7.5-3.8 1.3-1.6 1.2-2.7 3.1-2.7 5.3 0 2.2 1 4.1 2.7 5.3.7.5 1.6.9 2.5 1.1h59.1c.4-.8.7-1.8.8-2.8 1.3-.8 2.5-2.5 2.5-4.4z" style="stroke-width: 3.5; fill: rgb(244, 230, 200); stroke: rgb(51, 51, 51);"></path></g></g><g class="ldl-layer"><g class="ldl-ani" style="opacity: 1; transform-origin: 50px 50px; transform: matrix3d(0.91, 0, 0, 0, 0, 0.91, 0, 0, 0, 0, 0.91, 0, 0, 0, 0, 1); animation: 1s linear -0.6s infinite normal forwards running animate; transform-box: view-box;"><path stroke-miterlimit="10" stroke-width="3.5" stroke="#333" fill="none" d="M42.6 29.4c-1.9-1.9-1.8-5.5.2-7.3s5.6-1.5 7.3.6c1.2 1.5 1.1 4.1-.3 5.5" style="stroke-width: 3.5; stroke: rgb(51, 51, 51);"></path></g></g><g class="ldl-layer"><g class="ldl-ani" style="opacity: 1; transform-origin: 50px 50px; transform: matrix3d(0.91, 0, 0, 0, 0, 0.91, 0, 0, 0, 0, 0.91, 0, 0, 0, 0, 1); animation: 1s linear -0.65s infinite normal forwards running animate; transform-box: view-box;"><path stroke-miterlimit="10" stroke-width="3.5" stroke="#333" fill="none" d="M51 25c.9-1.5 2.8-2.2 4.5-1.7 1.6.5 2.9 2.2 2.8 3.9" style="stroke-width: 3.5; stroke: rgb(51, 51, 51);"></path></g></g><g class="ldl-layer"><g class="ldl-ani" style="opacity: 1; transform-origin: 50px 50px; transform: matrix3d(0.91, 0, 0, 0, 0, 0.91, 0, 0, 0, 0, 0.91, 0, 0, 0, 0, 1); animation: 1s linear -0.7s infinite normal forwards running animate; transform-box: view-box;"><path stroke-miterlimit="10" stroke-width="3.5" stroke="#333" fill="#f4e6c8" d="M76 17.9c-.9 0-7.3-.5-7.2 6" style="stroke-width: 3.5; fill: rgb(244, 230, 200); stroke: rgb(51, 51, 51);"></path></g></g></g></g></g><g class="ldl-layer"><g class="ldl-ani"><g><g class="ldl-layer"><g class="ldl-ani" style="opacity: 1; transform-origin: 50px 50px; transform: matrix3d(0.91, 0, 0, 0, 0, 0.91, 0, 0, 0, 0, 0.91, 0, 0, 0, 0, 1); animation: 1s linear -0.75s infinite normal forwards running animate; transform-box: view-box;"><path stroke-miterlimit="10" stroke-width="3.5" stroke="#333" fill="#e15c64" d="M36.6 90h-7c-1.5 0-2.7-1.1-2.9-2.6l-5.5-53.6h11.9L36.6 90z" style="stroke-width: 3.5; fill: rgb(147, 2, 21); stroke: rgb(51, 51, 51);"></path></g></g><g class="ldl-layer"><g class="ldl-ani" style="opacity: 1; transform-origin: 50px 50px; transform: matrix3d(0.91, 0, 0, 0, 0, 0.91, 0, 0, 0, 0, 0.91, 0, 0, 0, 0, 1); animation: 1s linear -0.8s infinite normal forwards running animate; transform-box: view-box;"><path d="M46.2 90h-9.6l-3.4-56.2H45z" stroke-miterlimit="10" stroke-width="3.5" stroke="#333" fill="#fff" style="stroke-width: 3.5; fill: rgb(255, 255, 255); stroke: rgb(51, 51, 51);"></path></g></g><g class="ldl-layer"><g class="ldl-ani" style="opacity: 1; transform-origin: 50px 50px; transform: matrix3d(0.91, 0, 0, 0, 0, 0.91, 0, 0, 0, 0, 0.91, 0, 0, 0, 0, 1); animation: 1s linear -0.85s infinite normal forwards running animate; transform-box: view-box;"><path d="M55.8 90h-9.6L45 33.8h11.9z" stroke-miterlimit="10" stroke-width="3.5" stroke="#333" fill="#e15c64" style="stroke-width: 3.5; fill: rgb(147, 2, 21); stroke: rgb(51, 51, 51);"></path></g></g><g class="ldl-layer"><g class="ldl-ani" style="opacity: 1; transform-origin: 50px 50px; transform: matrix3d(0.91, 0, 0, 0, 0, 0.91, 0, 0, 0, 0, 0.91, 0, 0, 0, 0, 1); animation: 1s linear -0.9s infinite normal forwards running animate; transform-box: view-box;"><path d="M65.3 90h-9.5l1.1-56.2h11.9z" stroke-miterlimit="10" stroke-width="3.5" stroke="#333" fill="#fff" style="stroke-width: 3.5; fill: rgb(255, 255, 255); stroke: rgb(51, 51, 51);"></path></g></g><g class="ldl-layer"><g class="ldl-ani" style="opacity: 1; transform-origin: 50px 50px; transform: matrix3d(0.91, 0, 0, 0, 0, 0.91, 0, 0, 0, 0, 0.91, 0, 0, 0, 0, 1); animation: 1s linear -0.95s infinite normal forwards running animate; transform-box: view-box;"><path stroke-miterlimit="10" stroke-width="3.5" stroke="#333" fill="#e15c64" d="M72.3 90h-7l3.4-56.2h11.9l-5.5 53.6c-.1 1.5-1.3 2.6-2.8 2.6z" style="stroke-width: 3.5; fill: rgb(147, 2, 21); stroke: rgb(51, 51, 51);"></path></g></g><g class="ldl-layer"><g class="ldl-ani" style="opacity: 1; transform-origin: 50px 50px; transform: matrix3d(0.91, 0, 0, 0, 0, 0.91, 0, 0, 0, 0, 0.91, 0, 0, 0, 0, 1); animation: 1s linear -1s infinite normal forwards running animate; transform-box: view-box;"><path stroke-miterlimit="10" stroke-width="3.5" stroke="#333" fill="#f7b26a" d="M56.9 66.7h-12c-2.8 0-5-2.2-5-5v-4.5c0-2.8 2.2-5 5-5h12c2.8 0 5 2.2 5 5v4.5c0 2.8-2.2 5-5 5z" style="stroke-width: 3.5; fill: rgb(247, 178, 106); stroke: rgb(51, 51, 51);"></path></g></g></g></g></g></g></g></svg>